# Blender v3.2.0 OBJ File: 'untitled.blend'
# www.blender.org
mtllib Pavement.mtl
o Cube
v 5.000000 -0.000000 -3.000000
v 5.000000 -0.000000 3.000000
v -5.000000 -0.000000 -3.000000
v -5.000000 -0.000000 3.000000
v 5.000000 0.200000 -3.000000
v 5.000000 0.200000 3.000000
v -5.000000 0.200000 -3.000000
v -5.000000 0.200000 3.000000
v 8.700000 0.200000 -3.000000
v 8.700000 0.200000 3.000000
v -8.800000 0.200000 -3.000000
v -8.800000 0.200000 3.000000
vt 0.802687 -0.051273
vt 0.141094 -0.051272
vt 0.141094 -0.002569
vt 0.802687 -0.002569
vt 0.141094 -0.051272
vt 0.802687 -0.051273
vt 0.802687 -0.002569
vt 0.141094 -0.002569
vt 0.141094 0.533174
vt 0.802687 0.533174
vt 0.802687 1.524299
vt 0.141094 1.524299
vt 0.802687 -0.002569
vt 0.141094 -0.002569
vt 0.141094 -1.020480
vt 0.802687 -1.020481
vn -1.0000 0.0000 0.0000
vn 1.0000 0.0000 0.0000
vn 0.0000 1.0000 0.0000
usemtl Pavement
s off
f 1/1/1 2/2/1 6/3/1 5/4/1
f 4/5/2 3/6/2 7/7/2 8/8/2
f 5/9/3 6/10/3 10/11/3 9/12/3
f 8/13/3 7/14/3 11/15/3 12/16/3
