# Blender v3.2.0 OBJ File: 'untitled.blend'
# www.blender.org
mtllib Wall.mtl
o Wall_Cube.002
v -9.000000 0.000000 3.000000
v -9.000000 1.300000 3.000000
v -9.000000 0.000000 -9.000000
v -9.000000 1.300000 -9.000000
v -8.000000 0.000000 3.000000
v -8.000000 1.300000 3.000000
v -8.000000 0.000000 -9.000000
v -8.000000 1.300000 -9.000000
v -9.200000 1.300000 3.000000
v -9.200000 1.300000 -9.000000
v -7.800000 1.300000 3.000000
v -7.800000 1.300000 -9.000000
v -9.200000 1.400000 3.000000
v -9.200000 1.400000 -9.000000
v -7.800000 1.400000 3.000000
v -7.800000 1.400000 -9.000000
v -8.500000 3.400000 3.000000
v -8.500000 1.400000 3.000000
v -8.500000 3.400000 -9.000000
v -8.500000 1.400000 -9.000000
vt 0.507812 0.208984
vt 0.507812 0.261719
vt 1.000000 0.261719
vt 1.000000 0.208984
vt 0.710938 0.257812
vt 0.763672 0.257812
vt 0.763672 0.218750
vt 0.710938 0.218750
vt 1.000000 0.208984
vt 1.000000 0.261719
vt 0.507812 0.261719
vt 0.507812 0.208984
vt 0.710938 0.218750
vt 0.763672 0.218750
vt 0.763672 0.257812
vt 0.710938 0.257812
vt 1.000000 0.257812
vt 1.000000 0.218750
vt 0.507812 0.218750
vt 0.507812 0.257812
vt 0.625980 0.407145
vt 0.865524 0.407145
vt 0.865524 0.403250
vt 0.625980 0.403250
vt 0.865524 0.417857
vt 0.625980 0.417857
vt 0.625980 0.415909
vt 0.865524 0.415909
vt 0.865524 0.426621
vt 0.625980 0.426621
vt 0.625980 0.430516
vt 0.865524 0.430516
vt 0.865524 0.403250
vt 0.865524 0.430516
vt 0.625980 0.430516
vt 0.625980 0.403250
vt 0.625980 0.417857
vt 0.865524 0.417857
vt 0.865524 0.415909
vt 0.625980 0.415909
vt 0.760359 0.417857
vt 0.732120 0.417857
vt 0.732120 0.415909
vt 0.760359 0.415909
vt 0.732120 0.417857
vt 0.760359 0.417857
vt 0.760359 0.415909
vt 0.732120 0.415909
vt 0.500000 0.966797
vt 0.500000 0.925781
vt 0.746094 0.925781
vt 0.746094 0.966797
vn -1.0000 0.0000 0.0000
vn 0.0000 0.0000 -1.0000
vn 1.0000 0.0000 0.0000
vn 0.0000 0.0000 1.0000
vn 0.0000 -1.0000 0.0000
vn 0.0000 1.0000 0.0000
usemtl FullShop
s off
f 1/1/1 2/2/1 4/3/1 3/4/1
f 3/5/2 4/6/2 8/7/2 7/8/2
f 7/9/3 8/10/3 6/11/3 5/12/3
f 5/13/4 6/14/4 2/15/4 1/16/4
f 3/17/5 7/18/5 5/19/5 1/20/5
f 6/21/5 8/22/5 12/23/5 11/24/5
f 11/25/3 12/26/3 16/27/3 15/28/3
f 4/29/5 2/30/5 9/31/5 10/32/5
f 2/30/6 6/21/6 11/24/6 9/31/6
f 8/22/4 4/29/4 10/32/4 12/23/4
f 16/33/6 14/34/6 13/35/6 15/36/6
f 10/37/1 9/38/1 13/39/1 14/40/1
f 9/41/4 11/42/4 15/43/4 13/44/4
f 12/45/2 10/46/2 14/47/2 16/48/2
f 17/49/3 18/50/3 20/51/3 19/52/3
